<svg xmlns="http://www.w3.org/2000/svg" version="1.1" xmlns:xlink="http://www.w3.org/1999/xlink" viewBox="0 0 7.94713485973953 9.272522943116373"><g transform="matrix(1,0,0,1,0.7149317445081009,6.453336026194479)"><rect width="9.272522943116373" height="9.272522943116373" x="-1.3776257861965222" y="-6.453336026194479" fill="#f9f7e9"></rect><g clip-path="url(#SvgjsClipPath1002)"><g clip-path="url(#SvgjsClipPath1000a5d7b3f5-7f7e-4868-bcd1-e4577b6225ad)"><path d=" M 5.115731332520299 -4.84078805074049 C 5.053831363384012 -4.84078805074049 4.993644630457275 -4.84078805074049 4.933457897530537 -4.84078805074049 C 4.792004177446532 -4.84086253927134 4.650475968831676 -4.84093702780219 4.509022248747672 -4.8411604933947405 C 4.434980649082849 -4.84123498192559 4.3876804319931475 -4.874084424030406 4.3718143749221134 -4.9359843931666925 C 4.3560228063819295 -4.997511919648729 4.38574373019105 -5.0620189873647625 4.450325286437933 -5.092186842358982 C 4.609507276864219 -5.166600884678055 4.770328014969204 -5.237662943108882 4.9298079595188895 -5.311630054242856 C 5.1610948478079015 -5.418893538666746 5.392530713158614 -5.526008046028935 5.622104365238076 -5.636846979933621 C 5.673650428586224 -5.661726149237495 5.722365927762074 -5.685115547924371 5.780913913010114 -5.684817593800972 C 5.806388990560787 -5.6846686167392715 5.825979474174317 -5.673122894457534 5.846165866034647 -5.662917965731094 C 5.916855481811224 -5.627237959453981 5.958345593494631 -5.571073607193139 5.958345593494631 -5.489434177381622 C 5.958494570556331 -5.0625404070807125 5.95894150174143 -4.6355721482489525 5.957824173778681 -4.208678377948041 C 5.957526219655281 -4.097169047265705 5.857264657131284 -4.0143378009605915 5.75461946162009 -4.036386406092168 C 5.702030558840044 -4.047708662781356 5.665307713131032 -4.079664242515974 5.644748878616453 -4.127858321975874 C 5.584413168628015 -4.269014087936479 5.525641717787425 -4.410840250674733 5.466348847230887 -4.5524429478204365 C 5.4511531869375025 -4.588793350875199 5.436180992236668 -4.625218242460812 5.419048630141185 -4.6666338656133695 C 5.395137811738359 -4.641307765124395 5.373312672199333 -4.618514274684319 5.351859975314554 -4.595422830120842 C 4.916772466620152 -4.127411390790774 4.4859308041841945 -3.6556010363873597 4.0594839650683845 -3.1797683013180493 C 4.020600951964724 -3.1363414878325444 3.9838781062557125 -3.090903484014091 3.9439522537201532 -3.048445021429635 C 3.8706555393638284 -2.970381041098915 3.7793326005418226 -2.9399897205121466 3.673260932611531 -2.951460954263035 C 3.6103926125741954 -2.958239410570378 3.547151849882612 -2.9625597453596733 3.4845814839686757 -2.9711259264074146 C 3.4546370945670066 -2.97522279560416 3.439068991619372 -2.963379119199022 3.426033498720635 -2.9390958581419473 C 3.3884167906414246 -2.869300104735569 3.350204174315414 -2.7998023054525905 3.3111721841500534 -2.7308259258855614 C 3.289198067549326 -2.692091889843601 3.2672239509485994 -2.6529109226165413 3.233927577658683 -2.6220726708446733 C 3.132772152764487 -2.5285150760971695 3.0015233614069223 -2.5344741585651636 2.907742301066868 -2.6386091246933563 C 2.863794067865414 -2.6873991124000556 2.823123330021356 -2.7392431298716025 2.7810373100911483 -2.7896718652570005 C 2.7651712530201147 -2.8087409291545806 2.748783776233132 -2.827437550397912 2.7335881159397477 -2.8470280340114416 C 2.7202546689176113 -2.8643093731686244 2.7122843961166696 -2.861776763119727 2.7020049788593803 -2.8434525845306458 C 2.6683361629152147 -2.7835638057273075 2.632954110761501 -2.7246433778250174 2.5986148980396866 -2.6650525531450784 C 2.4799546683957585 -2.4588682997524915 2.36211381259118 -2.252237115174804 2.242634209107903 -2.046499792967316 C 2.1894493980810577 -1.95502787708361 2.1120558145279866 -1.9000553413163663 2.001887277400951 -1.9091429420800567 C 1.9487024663741053 -1.9135377654002022 1.8990186162972063 -1.935958813186029 1.8490368120969078 -1.9543574803059607 C 1.8141761796591436 -1.9671695076121472 1.7794645242830796 -1.9804284661034335 1.745125311561265 -1.9945812869649182 C 1.724640965577536 -2.0030729794818103 1.7114564956170997 -2.000912812087162 1.6955159500152157 -1.982141702312982 C 1.5005049762501166 -1.7522700961101183 1.304823605707368 -1.5229943981540552 1.1080993957327205 -1.2946870510990394 C 1.0546911191133255 -1.2326381049010537 1.0021022163332796 -1.1700677389871181 0.9502581988617327 -1.1066779992338338 C 0.8723431955927128 -1.011407168276782 0.7636644290826746 -0.9992655377482444 0.6832168157647576 -1.0743499768449656 C 0.6199760530731727 -1.133419381808955 0.6095476587541833 -1.230775891629805 0.6658609880767252 -1.296027844654338 C 0.7872772933621005 -1.436811167960693 0.9127159793133712 -1.5741680188479519 1.0350261469689455 -1.7142064568458073 C 1.1875786581495884 -1.8888820616888786 1.3384924216515333 -2.064972948618097 1.4903745360545266 -2.2403189502388154 C 1.5689599361011959 -2.3311204693448735 1.666912354168845 -2.359947530783793 1.781624691677727 -2.3261297377779275 C 1.8420348901970154 -2.3083269789047955 1.901551226346104 -2.2870232590817183 1.9606951198409435 -2.26504914248099 C 1.9806580461087226 -2.2576002893959974 1.9901180895266628 -2.2596859682597956 2.001067903561602 -2.279052986280776 C 2.087325622285813 -2.431382031868869 2.173881295133424 -2.5835621003952625 2.2623736697831327 -2.7345503524280566 C 2.335372430016058 -2.8590951760091285 2.403008016027788 -2.986917494947597 2.485168865555253 -3.1059501672457746 C 2.5230835277578647 -3.160848214482168 2.570160279255016 -3.2071800806708204 2.6374979111433468 -3.224088977173753 C 2.726362728447305 -3.24643553642873 2.805693013802474 -3.2258767019141517 2.868337868247259 -3.158464581494971 C 2.9256940370017 -3.096713589420384 2.9799216874604446 -3.0319085675809507 3.03340445261069 -2.966731103087268 C 3.055229592149717 -2.940213186104695 3.0640937273208575 -2.9420009108450933 3.079661830268492 -2.972392231431862 C 3.1134796232743573 -3.0385380468265937 3.14975553779827 -3.103492045727727 3.18796815412428 -3.167179739604411 C 3.24666511643402 -3.2649086920795107 3.3335187434050306 -3.307590620256517 3.447933126790513 -3.29515103560458 C 3.516983994888392 -3.287627693988737 3.5866307712330707 -3.285765480717489 3.6554581737384 -3.277124811138898 C 3.692478973570812 -3.272432033695353 3.7146020672332396 -3.286584854556838 3.737693511796715 -3.3126558403543114 C 3.8278246341251223 -3.4146306390878562 3.9209352976875262 -3.5139983392416543 4.0109919314850835 -3.6160476265060493 C 4.254569427364332 -3.8921021218358653 4.505521287797725 -4.1614526493891875 4.7528232102194705 -4.434080672299907 C 4.864853960617755 -4.55758265644908 4.978299993102189 -4.679818335573804 5.090777674685572 -4.802873388537877 C 5.099567321325863 -4.812482409017518 5.111783440385252 -4.82000575063336 5.115805821051147 -4.840639073678789 Z" fill="#3f170e" transform="matrix(1,0,0,1,0,0)" fill-rule="nonzero"></path></g><g clip-path="url(#SvgjsClipPath1000a5d7b3f5-7f7e-4868-bcd1-e4577b6225ad)"><path d=" M 3.8785513236339226 -5.224180519025046 C 3.8785513236339226 -5.311481077181156 3.8784023465722224 -5.392003179029923 3.8785513236339226 -5.47252528087869 C 3.8787003006956216 -5.563252311453897 3.9399298730542593 -5.6283552874167295 4.0309548577528655 -5.629770569502878 C 4.159968993184934 -5.631707271304976 4.289057617147851 -5.631558294243277 4.418146241110768 -5.630291989218828 C 4.491368466936242 -5.629547103910329 4.554981672282077 -5.563699242638997 4.562579502428768 -5.485262819654027 C 4.562802968021319 -5.48280469813598 4.562951945083019 -5.480272088087083 4.562877456552168 -5.477813966569035 C 4.562728479490469 -5.443102311192971 4.572263011439259 -5.404219298089311 4.5597489382564715 -5.374721839872741 C 4.546787933888584 -5.344032565162572 4.501498907131831 -5.3521518150252145 4.471331052137613 -5.340531604212626 C 4.342540382298095 -5.2908477541357275 4.235351386405055 -5.219338764519801 4.1919990614504 -5.078778906805995 C 4.119968652118525 -4.845182874060636 4.27021201884282 -4.6368384532734 4.5147578656231175 -4.633709934977704 C 4.554534741096978 -4.633188515261754 4.59028923590494 -4.632592607014955 4.615764313455614 -4.596018738367642 C 4.623362143602306 -4.585068924332703 4.626565150428853 -4.580003704234909 4.615764313455614 -4.568904913138271 C 4.478109508444955 -4.427674658646816 4.340752657557697 -4.2861464500319615 4.204066203448088 -4.143873356108608 C 4.187306284006855 -4.126443039889726 4.179484988267613 -4.137988762171464 4.168311708640125 -4.148268179428753 C 4.029018155950768 -4.27713333779912 3.889426649138013 -4.405775030576938 3.7501330964486552 -4.5347146774781555 C 3.6038376218594057 -4.670134826563316 3.457765612862706 -4.805778441241026 3.311619115335157 -4.9414220559187365 C 3.2438345522617253 -5.004290375956072 3.2375775156703326 -5.004141398894372 3.1700909067203016 -4.941645521511286 C 2.750794966566084 -4.553336810190636 2.331648003473565 -4.164879121808286 1.9120541091959469 -3.776942853141885 C 1.7900418956637725 -3.6640927289042513 1.6669868426996992 -3.5523599326293667 1.5438573012047758 -3.440850601947031 C 1.52992794593584 -3.4282620402333936 1.5337268610091859 -3.414034730841059 1.5337268610091859 -3.4000308870412725 C 1.5332054412932368 -3.1282222379699025 1.532609533046437 -2.856488077429382 1.5332799298240865 -2.5846794283580117 C 1.5332799298240865 -2.555330947203142 1.5266504505784435 -2.5319415485162655 1.5054957078170648 -2.5114572025325366 C 1.4212491794258018 -2.429594307128471 1.3376730478121877 -2.3472099920084557 1.2509683979028767 -2.2622185783086928 C 1.2509683979028767 -2.282926389884971 1.2509683979028767 -2.3019954537825527 1.2509683979028767 -2.320990029149282 C 1.2509683979028767 -2.6833767317341595 1.250521466717777 -3.045688945788187 1.251638794680526 -3.4080756483730634 C 1.251713283211376 -3.4374986180587834 1.2421042627317358 -3.4424148610948784 1.2158098113417128 -3.4418189528480787 C 1.143853890540687 -3.4401057166385303 1.071897969739661 -3.44092509047788 0.9998675604077851 -3.441297533132129 C 0.934913561506652 -3.441595487255529 0.879568583085159 -3.480031569174089 0.8575944664844316 -3.5392499511997784 C 0.8368866549081528 -3.595041860806371 0.8545404367195846 -3.655675524918208 0.9041497982656337 -3.6999217122430625 C 1.047689197213436 -3.8278930082432314 1.1917500158771879 -3.9552683959966 1.3345445295164908 -4.084059065836117 C 1.6284017837194384 -4.349089258600145 1.9215141526138866 -4.61493882520352 2.215073452693435 -4.880266972090948 C 2.3139942216621323 -4.969653209110856 2.41373436447018 -5.058145583760565 2.5122826907846285 -5.148053240496422 C 2.7009621394274843 -5.320196235290595 2.8897160766011907 -5.4923392300847675 3.077129220219597 -5.665971995495939 C 3.1747836841638466 -5.756475560478596 3.2813767718100872 -5.764743787402937 3.378807770161786 -5.6761769242223785 C 3.534712265230675 -5.534499738545824 3.693372835941013 -5.395653117041567 3.8428713173568085 -5.24704849799597 C 3.8511395442811502 -5.238854759602479 3.862834243624587 -5.234161982158934 3.8784023465722215 -5.224403984617593 Z" fill="#3f170e" transform="matrix(1,0,0,1,0,0)" fill-rule="nonzero"></path></g><g clip-path="url(#SvgjsClipPath1000a5d7b3f5-7f7e-4868-bcd1-e4577b6225ad)"><path d=" M 1.5329819757006857 -1.4279470327895538 C 1.5329819757006857 -1.148764019164041 1.5329819757006857 -0.8783706521788197 1.5329819757006857 -0.6079027966627466 C 1.5329819757006857 -0.5917387854683138 1.5343227692559844 -0.5755002857430309 1.532684021577286 -0.5595597401411467 C 1.5303003885900885 -0.536021364392572 1.5378237302059308 -0.5279766030607798 1.5629263651023548 -0.5279021145299296 C 1.6857579524738786 -0.5279021145299296 1.8085895398454022 -0.5244756421108328 1.9314956157477756 -0.5244011535799826 C 2.967854545462759 -0.524177687987434 4.0042134751777425 -0.5245501306416829 5.040572404892726 -0.5244011535799826 C 5.0651536200732 -0.5244011535799826 5.079827860650635 -0.5238052453331825 5.080200303304886 -0.5585169007092485 C 5.087425690797328 -1.36276956829587 5.076401388231539 -2.1670222358824933 5.082285982168683 -2.9712749034691153 C 5.083328821600582 -3.1102705020350725 5.080945188613385 -3.2492661006010284 5.082062516576133 -3.3882616991669856 C 5.082285982168683 -3.4160459211740073 5.0726769616890435 -3.434891519479038 5.053235455137212 -3.4526942783521695 C 4.9709256285480485 -3.5281511601031417 4.889658641390781 -3.604725369816863 4.807050860678217 -3.6798842974444357 C 4.7914827577305825 -3.694037118305921 4.7910358265454835 -3.7012625057983635 4.806008021246318 -3.716756120215148 C 4.933755851653936 -3.8486753083503618 5.059566980259456 -3.982456709756824 5.191337191332972 -4.110428005756993 C 5.21249193409435 -4.1309868402715715 5.223143794005889 -4.133891892974718 5.246384215631065 -4.111470845188892 C 5.379420731729028 -3.9831271065344733 5.514691903752488 -3.857018023805553 5.6489947248749 -3.7299405901755835 C 5.672384123561775 -3.7078174965131563 5.696592896088001 -3.6865137766900786 5.711714067850536 -3.6570163184735085 C 5.762217291766783 -3.5587659462824597 5.6997959029145475 -3.449863714179872 5.584562145689716 -3.44234037256403 C 5.52154484859068 -3.438243503367284 5.457931643244846 -3.4399567395768322 5.394765369084111 -3.442563838156579 C 5.365416887929241 -3.4437556546501784 5.3607985990165465 -3.4336997029854386 5.3607985990165465 -3.407107297472016 C 5.361692461386745 -2.6561884179739383 5.361766949917595 -1.905344027006712 5.361915926979295 -1.1544251475086345 C 5.361915926979295 -0.9571050292871872 5.362511835226095 -0.7597104225348907 5.361171041670795 -0.5623903043134435 C 5.361022064609096 -0.5347550593681216 5.367577055323889 -0.5269337636288807 5.39580820851601 -0.5272317177522794 C 5.532345685563919 -0.529019442492678 5.668883162611828 -0.5290939310235281 5.805346151128888 -0.5282745571841785 C 5.867171631734324 -0.5279021145299296 5.913131055268727 -0.4995964728069575 5.937861247510901 -0.4412719531514684 C 5.961921042975428 -0.38451169264382745 5.947172313867142 -0.33475335403607875 5.908438277825182 -0.2901347240569745 C 5.878866331077761 -0.2560934654585587 5.839312921196453 -0.2502833600522658 5.796928947142846 -0.2504323371139652 C 5.589627365787509 -0.2511027338916145 5.3824002729630225 -0.2512517109533139 5.175098691607686 -0.25117722242246465 C 3.7800774858503217 -0.25087926829906504 2.384981791562107 -0.2504323371139652 0.9899605858047427 -0.25013438299056556 C 0.8906673741817946 -0.25013438299056556 0.7912996740279971 -0.24909154355866736 0.6921554394667492 -0.25281597010116297 C 0.5800502005376145 -0.25698732782875844 0.5223960776597739 -0.37251903917699014 0.5835511614875608 -0.4655552142085435 C 0.6068660716435869 -0.5010117548931072 0.6399389793409528 -0.5220175205927857 0.6820994878020095 -0.5238797338640344 C 0.7403495189266494 -0.5264868324437817 0.7986740385821394 -0.5261888783203812 0.8569985582376294 -0.5265613209746309 C 0.974913902573058 -0.5273062062831304 1.0928292469084866 -0.5287959769001285 1.2107445912439152 -0.5276041604065309 C 1.2415828430157836 -0.5273062062831304 1.252830611174122 -0.5326693805043243 1.2526071455815724 -0.5673810358803895 C 1.2513408405571238 -0.7423545948468595 1.2540969161985704 -0.9173281538133295 1.2534265194209215 -1.0923017127797987 C 1.2532775423592217 -1.1259705287239639 1.2629610513697118 -1.1504027668427392 1.2865739156491371 -1.1742390967147154 C 1.3616583547458603 -1.250068421119936 1.434582626447935 -1.3279834243889574 1.5084752490510591 -1.4050045652877774 C 1.5142108659265032 -1.4110381362866207 1.5206913681104464 -1.4163268219769654 1.5332054412932337 -1.4277235671970043 Z" fill="#3f170e" transform="matrix(1,0,0,1,0,0)" fill-rule="nonzero"></path></g><g clip-path="url(#SvgjsClipPath1000a5d7b3f5-7f7e-4868-bcd1-e4577b6225ad)"><path d=" M 4.9225080834955985 -1.9168152607575997 C 4.9225080834955985 -1.5457134000632813 4.9225080834955985 -1.174537050838114 4.9225080834955985 -0.8034351901437962 C 4.9225080834955985 -0.7132295792845387 4.894723861488576 -0.6849984260924185 4.805710067122918 -0.6848494490307182 C 4.661723736990016 -0.6846259834381687 4.5177374068571154 -0.6845514949073186 4.373751076724213 -0.6846259834381687 C 4.2839923970500555 -0.6846259834381687 4.25144090906864 -0.7177733796663857 4.251664374661189 -0.8089473414266912 C 4.252930679685637 -1.2681691341164685 4.255090847080286 -1.7273909268062457 4.255463289734534 -2.186612719496024 C 4.255686755327084 -2.468328343170434 4.253303122339887 -2.7500439668448435 4.2523347714388375 -3.0317595905192536 C 4.252036817315439 -3.1298609856486026 4.280640413161809 -3.1583156044332736 4.378145900044359 -3.1585390700258227 C 4.515949682116716 -3.1588370241492227 4.653678975658225 -3.1589860012109225 4.791482757730583 -3.1591349782726224 C 4.895394258266227 -3.159209466803472 4.921986663779649 -3.1322446186358 4.921986663779649 -3.026470904828909 C 4.921986663779649 -2.6565608606281894 4.921986663779649 -2.28672530495832 4.921986663779649 -1.916815260757601 L 4.922359106433898 -1.916815260757601 Z" fill="#d56a34" transform="matrix(1,0,0,1,0,0)" fill-rule="nonzero"></path></g><g clip-path="url(#SvgjsClipPath1000a5d7b3f5-7f7e-4868-bcd1-e4577b6225ad)"><path d=" M 3.4165734553026965 -1.571858874391605 C 3.4165734553026965 -1.8287698172929905 3.4165734553026965 -2.0856807601943768 3.4164244782409976 -2.3425917030957617 C 3.4164244782409976 -2.365161727943289 3.4176907832654453 -2.387210333074866 3.4273742922759367 -2.407992633181994 C 3.441601601668271 -2.438458442299613 3.4639481609232488 -2.458495857098242 3.498883281891863 -2.4586448341599416 C 3.667674292797789 -2.4595386965301405 3.8363908151728654 -2.4606560244928892 4.0051818260787915 -2.4597621621226904 C 4.053077951415293 -2.4595386965301405 4.082798875224412 -2.4266147658944743 4.086597790297757 -2.3752921681388774 C 4.0886834691615555 -2.3469120378850565 4.087640629729657 -2.3182339535078365 4.087640629729657 -2.2897048461923153 C 4.087640629729657 -1.7957713981264738 4.087640629729657 -1.3018379500606319 4.087640629729657 -0.8078300134639393 C 4.087640629729657 -0.7149428154940853 4.057174820612038 -0.6844770063764676 3.965628416197482 -0.6846259834381669 C 3.820450269570981 -0.6848494490307173 3.6751976344136312 -0.6846259834381669 3.5300194877871305 -0.6847749604998663 C 3.450763690962812 -0.6848494490307173 3.416349989710147 -0.7193376388142312 3.416349989710147 -0.7974016191449511 C 3.416349989710147 -1.0555788670707846 3.416349989710147 -1.3136816264657698 3.416349989710147 -1.5718588743916033 L 3.4164989667718473 -1.5718588743916033 Z" fill="#d56a34" transform="matrix(1,0,0,1,0,0)" fill-rule="nonzero"></path></g><g clip-path="url(#SvgjsClipPath1000a5d7b3f5-7f7e-4868-bcd1-e4577b6225ad)"><path d=" M 2.5767152699698115 -1.4032168405473788 C 2.5767152699698115 -1.595546227201881 2.5767152699698115 -1.7878756138563827 2.5767152699698115 -1.9801305119800348 C 2.5767152699698115 -1.9974863396680673 2.575970384661312 -2.014916655886949 2.577162201154911 -2.0321979950441316 C 2.5809611162282575 -2.0894796752677234 2.6173860078138698 -2.128809619556482 2.674593199506611 -2.129405527803281 C 2.8359353573275454 -2.1311187640128293 2.997277515148479 -2.13119325254368 3.158545184438563 -2.129628993395831 C 3.212027949588808 -2.1291075736798803 3.251506870939267 -2.08203082218273 3.2518793135935167 -2.0235573254655397 C 3.2526241989020157 -1.8981931280451185 3.2524752218403155 -1.772903419155548 3.2524752218403155 -1.6475392217351272 C 3.2524007333094658 -1.3682817195787642 3.2521027791860657 -1.0890987059532513 3.2518793135935167 -0.8098412037968883 C 3.251804825062666 -0.7160601434568354 3.220966573290798 -0.6854453572775165 3.126664093234795 -0.6853708687466664 C 2.980219641583846 -0.685221891684967 2.8337751899328962 -0.685147403154116 2.687330738281947 -0.685221891684967 C 2.609639200605477 -0.685221891684967 2.5761938502538615 -0.7197100814684809 2.5762683387847116 -0.7964332682439021 C 2.576640781438961 -0.9986696295014434 2.576417315846411 -1.2009059907589856 2.576417315846411 -1.4031423520165278 C 2.576566292908111 -1.4031423520165278 2.5766407814389605 -1.4031423520165278 2.5767897585006607 -1.4031423520165278 Z" fill="#d56a34" transform="matrix(1,0,0,1,0,0)" fill-rule="nonzero"></path></g><g clip-path="url(#SvgjsClipPath1000a5d7b3f5-7f7e-4868-bcd1-e4577b6225ad)"><path d=" M 1.7393152061549733 -1.1080187927891325 C 1.7393152061549733 -1.2159526739906719 1.7390172520315734 -1.3238120666613602 1.7393896946858234 -1.4317459478628995 C 1.7396131602783726 -1.4978172747267813 1.7706003891119408 -1.5296983659305488 1.8373421127534724 -1.5304432512390473 C 1.991086440427714 -1.5321564874485958 2.144905256632806 -1.533273815411345 2.2986495843070474 -1.5331248383496456 C 2.372616695441022 -1.5331248383496456 2.412170105322331 -1.4911133069502887 2.4123190823840304 -1.4162523334461152 C 2.41261703650743 -1.2152822772130216 2.41269152503828 -1.0143867095107781 2.41276601356913 -0.8134166532776863 C 2.41276601356913 -0.7911445825535584 2.413361921815929 -0.7689470003602814 2.4054661375458375 -0.7473453264138037 C 2.3910898510918024 -0.7080898706558942 2.3639760258624305 -0.6854453572775174 2.322038982993923 -0.6852218916849679 C 2.1583131921857914 -0.6845514949073177 1.9945874013776603 -0.6840300751913686 1.830861610569529 -0.6854453572775165 C 1.7731329991608382 -0.6859667769934665 1.7398366258709224 -0.7232855309492789 1.7397621373400722 -0.7804927226420189 C 1.7396131602783726 -0.8896184203371567 1.7397621373400722 -0.9988186065631437 1.7397621373400722 -1.1079443042582824 L 1.7393152061549728 -1.1079443042582824 Z" fill="#d56a34" transform="matrix(1,0,0,1,0,0)" fill-rule="nonzero"></path></g><g clip-path="url(#SvgjsClipPath1000a5d7b3f5-7f7e-4868-bcd1-e4577b6225ad)"><path d=" M 2.8360098458583947 -3.6870351964060277 C 2.8360098458583947 -3.7266630948181874 2.8351904720190455 -3.7663654817611962 2.8362333114509446 -3.8059188916425057 C 2.8373506394136934 -3.851058941337559 2.8629746940260667 -3.8773533927275823 2.9081892322519707 -3.8783217436286312 C 2.963906653327713 -3.8795135601222306 3.019698562934306 -3.8795135601222306 3.0754159840100486 -3.8781727665669314 C 3.1214498960753008 -3.8770554386041827 3.146924973625975 -3.852921154608808 3.147967813057874 -3.8062913342967555 C 3.1498300263291217 -3.722119294436342 3.149532072205722 -3.6377982775142295 3.148340255712124 -3.5536262376538157 C 3.1478188359961736 -3.5170523690065028 3.123386597877399 -3.4935139932579276 3.0868872177609363 -3.492769107949428 C 3.0249872486246505 -3.49142831439413 2.963012790957514 -3.49120484880158 2.901112821821228 -3.4922476882334785 C 2.85999515279207 -3.492918085011128 2.8374996164753936 -3.5155625983895047 2.836158822920095 -3.5569037330112123 C 2.834743540833946 -3.6001815694350174 2.835860868796695 -3.643608382920523 2.835860868796695 -3.686960707875178 C 2.835935357327544 -3.686960707875178 2.8360098458583947 -3.686960707875178 2.836158822920095 -3.686960707875178 Z" fill="#3f170e" transform="matrix(1,0,0,1,0,0)" fill-rule="nonzero"></path></g><g clip-path="url(#SvgjsClipPath1000a5d7b3f5-7f7e-4868-bcd1-e4577b6225ad)"><path d=" M 3.6341544539153228 -3.6784690153582864 C 3.6341544539153228 -3.6375748119216786 3.634824850692973 -3.5966806084850704 3.633930988322774 -3.555786405048463 C 3.6331861030142742 -3.5198829331788 3.613148688215645 -3.4951527409366254 3.5782880557778802 -3.493886435912177 C 3.5127381486299485 -3.491577291455829 3.4469647758894664 -3.491502802924979 3.3814148687415337 -3.4936629703196274 C 3.348863380760117 -3.494705809751526 3.328081080652988 -3.5167544148831036 3.32718721828279 -3.5490824372719705 C 3.3247290967647425 -3.63697890367488 3.323611768801993 -3.7249498586086394 3.3249525623572924 -3.8128463250115487 C 3.325548470604091 -3.8537405284481565 3.3496827545994665 -3.875938110641434 3.391619797467973 -3.8775768583201318 C 3.4485290350373146 -3.8797370257147796 3.5055872496683556 -3.880332933961579 3.5625709757685478 -3.8786196977520304 C 3.6078600025253014 -3.877278904196732 3.6325901947674755 -3.84986712484396 3.6333350800759745 -3.8048015636797565 C 3.6340054768536247 -3.7627155437495503 3.6334840571376747 -3.720555035288493 3.6334840571376747 -3.6783945268274367 C 3.633782011261074 -3.6783945268274367 3.6340054768536247 -3.6783945268274367 3.634303430977024 -3.6783945268274367 Z" fill="#3f170e" transform="matrix(1,0,0,1,0,0)" fill-rule="nonzero"></path></g></g><g><path d=" M 0.47690399590853927 1.1534999999999997 Q 0.45740399590853925 1.1534999999999997 0.4409039959085393 1.1444999999999999 Q 0.4244039959085393 1.1355 0.4184039959085393 1.1175 L 0.12290399590853926 0.10049999999999981 Q 0.11990399590853926 0.0944999999999998 0.11990399590853926 0.0884999999999998 Q 0.11990399590853926 0.07649999999999979 0.12890399590853927 0.06674999999999986 Q 0.13790399590853925 0.05699999999999972 0.15140399590853926 0.05249999999999977 Q 0.16490399590853927 0.04799999999999982 0.17690399590853928 0.04799999999999982 Q 0.19040399590853926 0.04799999999999982 0.20240399590853925 0.053999999999999826 Q 0.21440399590853926 0.05999999999999983 0.21740399590853926 0.0734999999999999 L 0.47690399590853927 0.9944999999999998 L 0.6254039959085392 0.43499999999999983 Q 0.6314039959085392 0.41549999999999987 0.6464039959085393 0.4079999999999998 Q 0.6614039959085393 0.40049999999999986 0.6794039959085393 0.40049999999999986 Q 0.6974039959085393 0.40049999999999986 0.7109039959085393 0.4079999999999998 Q 0.7244039959085393 0.41549999999999987 0.7289039959085393 0.43499999999999983 L 0.8804039959085392 0.9944999999999998 L 1.1384039959085392 0.0734999999999999 Q 1.1429039959085392 0.05999999999999983 1.1541539959085392 0.053999999999999826 Q 1.1654039959085394 0.04799999999999982 1.1789039959085392 0.04799999999999982 Q 1.1939039959085394 0.04799999999999982 1.2059039959085394 0.05249999999999977 Q 1.2179039959085394 0.05699999999999972 1.2269039959085393 0.06674999999999986 Q 1.2359039959085394 0.07649999999999979 1.2359039959085394 0.0884999999999998 Q 1.2359039959085394 0.0944999999999998 1.2344039959085393 0.10049999999999981 L 0.9404039959085393 1.1175 Q 0.9344039959085393 1.1355 0.9179039959085393 1.1444999999999999 Q 0.9014039959085393 1.1534999999999997 0.8804039959085392 1.1534999999999997 Q 0.8609039959085393 1.1534999999999997 0.8436539959085393 1.1444999999999999 Q 0.8264039959085393 1.1355 0.8219039959085392 1.1175 L 0.6794039959085393 0.5879999999999999 L 0.5369039959085393 1.1175 Q 0.5324039959085393 1.1355 0.5151539959085393 1.1444999999999999 Q 0.4979039959085393 1.1534999999999997 0.47690399590853927 1.1534999999999997 M 1.583938419736664 1.1549999999999998 Q 1.489438419736664 1.1549999999999998 1.416688419736664 1.1189999999999998 Q 1.343938419736664 1.0829999999999997 1.302688419736664 1.0192499999999998 Q 1.2614384197366642 0.9554999999999998 1.2614384197366642 0.8699999999999999 L 1.2614384197366642 0.7019999999999998 Q 1.2614384197366642 0.6269999999999999 1.300438419736664 0.5639999999999998 Q 1.339438419736664 0.5009999999999999 1.404688419736664 0.4634999999999998 Q 1.469938419736664 0.4259999999999998 1.547938419736664 0.4259999999999998 Q 1.622938419736664 0.4259999999999998 1.686688419736664 0.4612499999999998 Q 1.750438419736664 0.49649999999999983 1.7894384197366642 0.5579999999999998 Q 1.828438419736664 0.6194999999999998 1.828438419736664 0.6989999999999998 Q 1.828438419736664 0.7574999999999998 1.808938419736664 0.7822499999999999 Q 1.7894384197366642 0.8069999999999998 1.760188419736664 0.8129999999999998 Q 1.7309384197366642 0.8189999999999998 1.697938419736664 0.8189999999999998 L 1.358938419736664 0.8189999999999998 L 1.358938419736664 0.8744999999999998 Q 1.358938419736664 0.9644999999999999 1.423438419736664 1.017 Q 1.487938419736664 1.0695 1.586938419736664 1.0695 Q 1.646938419736664 1.0695 1.679938419736664 1.0544999999999998 Q 1.712938419736664 1.0394999999999999 1.7316884197366642 1.0244999999999997 Q 1.750438419736664 1.0094999999999998 1.7669384197366642 1.0094999999999998 Q 1.778938419736664 1.0094999999999998 1.7886884197366641 1.01775 Q 1.798438419736664 1.0259999999999998 1.803688419736664 1.0364999999999998 Q 1.808938419736664 1.047 1.808938419736664 1.0559999999999998 Q 1.808938419736664 1.0724999999999998 1.781938419736664 1.0964999999999998 Q 1.7549384197366642 1.1204999999999998 1.703938419736664 1.1377499999999998 Q 1.652938419736664 1.1549999999999998 1.583938419736664 1.1549999999999998 M 1.358938419736664 0.7469999999999999 L 1.6589384197366641 0.7469999999999999 Q 1.703938419736664 0.7469999999999999 1.7189384197366642 0.7372499999999998 Q 1.733938419736664 0.7274999999999998 1.733938419736664 0.6959999999999998 Q 1.733938419736664 0.6479999999999999 1.710688419736664 0.6044999999999998 Q 1.687438419736664 0.5609999999999998 1.644688419736664 0.5339999999999998 Q 1.6019384197366642 0.5069999999999998 1.546438419736664 0.5069999999999998 Q 1.4954384197366641 0.5069999999999998 1.452688419736664 0.5317499999999998 Q 1.409938419736664 0.5564999999999999 1.384438419736664 0.5977499999999999 Q 1.358938419736664 0.6389999999999998 1.358938419736664 0.6899999999999998 L 1.358938419736664 0.7469999999999999 M 2.131450138486664 1.1549999999999998 Q 2.047450138486664 1.1549999999999998 1.987450138486664 1.10625 Q 1.927450138486664 1.0574999999999999 1.927450138486664 0.9569999999999999 Q 1.927450138486664 0.8744999999999998 1.9717001384866641 0.8302499999999998 Q 2.015950138486664 0.7859999999999998 2.094700138486664 0.7687499999999998 Q 2.173450138486664 0.7514999999999998 2.276950138486664 0.7514999999999998 L 2.353450138486664 0.7514999999999998 L 2.353450138486664 0.7154999999999998 Q 2.353450138486664 0.6674999999999998 2.336200138486664 0.6202499999999999 Q 2.318950138486664 0.5729999999999998 2.280700138486664 0.5422499999999998 Q 2.242450138486664 0.5114999999999998 2.176450138486664 0.5114999999999998 Q 2.126950138486664 0.5114999999999998 2.095450138486664 0.5219999999999998 Q 2.063950138486664 0.5324999999999999 2.045950138486664 0.5437499999999998 Q 2.027950138486664 0.5549999999999998 2.015950138486664 0.5549999999999998 Q 1.997950138486664 0.5549999999999998 1.987450138486664 0.5369999999999998 Q 1.9769501384866641 0.5189999999999998 1.9769501384866641 0.5024999999999998 Q 1.9769501384866641 0.4829999999999999 2.007700138486664 0.4657499999999999 Q 2.038450138486664 0.4484999999999998 2.085700138486664 0.4372499999999998 Q 2.132950138486664 0.4259999999999998 2.179450138486664 0.4259999999999998 Q 2.2799501384866643 0.4259999999999998 2.339200138486664 0.46724999999999983 Q 2.398450138486664 0.5084999999999998 2.424700138486664 0.5744999999999998 Q 2.450950138486664 0.6404999999999998 2.450950138486664 0.7154999999999998 L 2.450950138486664 1.1055 Q 2.450950138486664 1.1219999999999999 2.438200138486664 1.1332499999999999 Q 2.425450138486664 1.1444999999999999 2.402950138486664 1.1444999999999999 Q 2.384950138486664 1.1444999999999999 2.371450138486664 1.1332499999999999 Q 2.357950138486664 1.1219999999999999 2.357950138486664 1.1055 L 2.357950138486664 1.0394999999999999 Q 2.318950138486664 1.0829999999999997 2.263450138486664 1.1189999999999998 Q 2.207950138486664 1.1549999999999998 2.131450138486664 1.1549999999999998 M 2.155450138486664 1.0724999999999998 Q 2.204950138486664 1.0724999999999998 2.249950138486664 1.047 Q 2.294950138486664 1.0214999999999999 2.324200138486664 0.9847499999999998 Q 2.353450138486664 0.9479999999999998 2.353450138486664 0.9149999999999998 L 2.353450138486664 0.8189999999999998 L 2.2904501384866642 0.8189999999999998 Q 2.222950138486664 0.8189999999999998 2.1622001384866643 0.8272499999999998 Q 2.101450138486664 0.8354999999999999 2.063200138486664 0.8624999999999998 Q 2.024950138486664 0.8894999999999998 2.024950138486664 0.9479999999999998 Q 2.024950138486664 1.0124999999999997 2.063200138486664 1.0424999999999998 Q 2.101450138486664 1.0724999999999998 2.155450138486664 1.0724999999999998 M 2.6924325603616643 1.1444999999999999 Q 2.672932560361664 1.1444999999999999 2.6586825603616644 1.1324999999999998 Q 2.6444325603616643 1.1204999999999998 2.6444325603616643 1.1055 L 2.6444325603616643 0.03599999999999981 Q 2.6444325603616643 0.01949999999999985 2.6586825603616644 0.009749999999999925 Q 2.672932560361664 -2.220446049250313e-16 2.6924325603616643 -2.220446049250313e-16 Q 2.7134325603616642 -2.220446049250313e-16 2.7276825603616643 0.009749999999999925 Q 2.7419325603616644 0.01949999999999985 2.7419325603616644 0.03599999999999981 L 2.7419325603616644 1.1055 Q 2.7419325603616644 1.1204999999999998 2.7276825603616643 1.1324999999999998 Q 2.7134325603616642 1.1444999999999999 2.6924325603616643 1.1444999999999999 M 3.1784442791116643 1.1444999999999999 Q 3.0629442791116643 1.1444999999999999 3.0014442791116642 1.0919999999999999 Q 2.939944279111664 1.0394999999999999 2.939944279111664 0.9239999999999998 L 2.939944279111664 0.13349999999999973 Q 2.939944279111664 0.11699999999999977 2.9556942791116643 0.10724999999999985 Q 2.9714442791116644 0.09749999999999992 2.987944279111664 0.09749999999999992 Q 3.0074442791116645 0.09749999999999992 3.022444279111664 0.10724999999999985 Q 3.0374442791116643 0.11699999999999977 3.0374442791116643 0.13349999999999973 L 3.0374442791116643 0.43499999999999983 L 3.232444279111664 0.43499999999999983 Q 3.2474442791116642 0.43499999999999983 3.256444279111664 0.44699999999999984 Q 3.2654442791116645 0.45899999999999985 3.2654442791116645 0.4754999999999998 Q 3.2654442791116645 0.4919999999999999 3.256444279111664 0.5039999999999999 Q 3.2474442791116642 0.5159999999999998 3.232444279111664 0.5159999999999998 L 3.0374442791116643 0.5159999999999998 L 3.0374442791116643 0.9239999999999998 Q 3.0374442791116643 0.9974999999999998 3.068944279111664 1.0267499999999998 Q 3.1004442791116644 1.0559999999999998 3.1784442791116643 1.0559999999999998 L 3.220444279111664 1.0559999999999998 Q 3.2414442791116644 1.0559999999999998 3.2526942791116644 1.0687499999999999 Q 3.2639442791116644 1.0815 3.2639442791116644 1.0995 Q 3.2639442791116644 1.1175 3.2526942791116644 1.1309999999999998 Q 3.2414442791116644 1.1444999999999999 3.220444279111664 1.1444999999999999 L 3.1784442791116643 1.1444999999999999 M 3.4349186443460393 1.1444999999999999 Q 3.4154186443460395 1.1444999999999999 3.4011686443460394 1.1324999999999998 Q 3.3869186443460393 1.1204999999999998 3.3869186443460393 1.1055 L 3.3869186443460393 0.03599999999999981 Q 3.3869186443460393 0.01949999999999985 3.4011686443460394 0.009749999999999925 Q 3.4154186443460395 -2.220446049250313e-16 3.4349186443460393 -2.220446049250313e-16 Q 3.4559186443460392 -2.220446049250313e-16 3.4701686443460393 0.009749999999999925 Q 3.4844186443460394 0.01949999999999985 3.4844186443460394 0.03599999999999981 L 3.4844186443460394 0.5399999999999998 Q 3.509918644346039 0.49649999999999983 3.559418644346039 0.4612499999999998 Q 3.6089186443460393 0.4259999999999998 3.6824186443460394 0.4259999999999998 Q 3.7544186443460394 0.4259999999999998 3.8151686443460395 0.46424999999999983 Q 3.875918644346039 0.5024999999999998 3.911918644346039 0.5654999999999999 Q 3.9479186443460392 0.6284999999999998 3.9479186443460392 0.7064999999999999 L 3.9479186443460392 1.1055 Q 3.9479186443460392 1.1249999999999998 3.932918644346039 1.13475 Q 3.9179186443460394 1.1444999999999999 3.898418644346039 1.1444999999999999 Q 3.8819186443460394 1.1444999999999999 3.8661686443460392 1.13475 Q 3.850418644346039 1.1249999999999998 3.850418644346039 1.1055 L 3.850418644346039 0.7064999999999999 Q 3.850418644346039 0.6584999999999999 3.824918644346039 0.6149999999999999 Q 3.7994186443460394 0.5714999999999998 3.757418644346039 0.5437499999999998 Q 3.7154186443460393 0.5159999999999998 3.664418644346039 0.5159999999999998 Q 3.619418644346039 0.5159999999999998 3.5781686443460394 0.5392499999999998 Q 3.536918644346039 0.5624999999999999 3.510668644346039 0.6044999999999998 Q 3.4844186443460394 0.6464999999999999 3.4844186443460394 0.7064999999999999 L 3.4844186443460394 1.1055 Q 3.4844186443460394 1.1204999999999998 3.4701686443460393 1.1324999999999998 Q 3.4559186443460392 1.1444999999999999 3.4349186443460393 1.1444999999999999 M 4.339382755674165 1.1564999999999999 Q 4.322882755674164 1.1564999999999999 4.3108827556741645 1.1504999999999999 Q 4.298882755674164 1.1444999999999999 4.294382755674164 1.1324999999999998 L 4.0528827556741644 0.49949999999999983 Q 4.051382755674164 0.49649999999999983 4.049132755674164 0.4889999999999999 Q 4.046882755674164 0.4814999999999998 4.046882755674164 0.47699999999999987 Q 4.046882755674164 0.46499999999999986 4.055882755674165 0.4544999999999998 Q 4.064882755674164 0.44399999999999984 4.079132755674165 0.43799999999999983 Q 4.093382755674164 0.43199999999999983 4.105382755674165 0.43199999999999983 Q 4.117382755674164 0.43199999999999983 4.127132755674165 0.4372499999999998 Q 4.136882755674164 0.4424999999999998 4.141382755674164 0.4544999999999998 L 4.339382755674165 0.9944999999999998 L 4.537382755674164 0.4604999999999998 Q 4.540382755674164 0.4484999999999998 4.547882755674165 0.4402499999999998 Q 4.555382755674164 0.43199999999999983 4.571882755674165 0.43199999999999983 Q 4.583882755674164 0.43199999999999983 4.597382755674165 0.43799999999999983 Q 4.610882755674164 0.44399999999999984 4.621382755674164 0.4537499999999999 Q 4.631882755674164 0.4634999999999998 4.631882755674164 0.4754999999999998 Q 4.631882755674164 0.4829999999999999 4.630382755674164 0.4889999999999999 Q 4.628882755674164 0.4949999999999999 4.625882755674164 0.49949999999999983 L 4.384382755674165 1.1324999999999998 Q 4.379882755674164 1.1429999999999998 4.367132755674164 1.1497499999999998 Q 4.354382755674164 1.1564999999999999 4.339382755674165 1.1564999999999999 M 4.904857120908539 1.1549999999999998 Q 4.820857120908539 1.1549999999999998 4.760857120908539 1.10625 Q 4.700857120908539 1.0574999999999999 4.700857120908539 0.9569999999999999 Q 4.700857120908539 0.8744999999999998 4.745107120908539 0.8302499999999998 Q 4.789357120908539 0.7859999999999998 4.868107120908539 0.7687499999999998 Q 4.94685712090854 0.7514999999999998 5.050357120908539 0.7514999999999998 L 5.126857120908539 0.7514999999999998 L 5.126857120908539 0.7154999999999998 Q 5.126857120908539 0.6674999999999998 5.10960712090854 0.6202499999999999 Q 5.092357120908539 0.5729999999999998 5.054107120908539 0.5422499999999998 Q 5.01585712090854 0.5114999999999998 4.949857120908539 0.5114999999999998 Q 4.90035712090854 0.5114999999999998 4.868857120908539 0.5219999999999998 Q 4.837357120908539 0.5324999999999999 4.819357120908539 0.5437499999999998 Q 4.8013571209085395 0.5549999999999998 4.789357120908539 0.5549999999999998 Q 4.771357120908539 0.5549999999999998 4.760857120908539 0.5369999999999998 Q 4.750357120908539 0.5189999999999998 4.750357120908539 0.5024999999999998 Q 4.750357120908539 0.4829999999999999 4.78110712090854 0.4657499999999999 Q 4.811857120908539 0.4484999999999998 4.859107120908539 0.4372499999999998 Q 4.906357120908539 0.4259999999999998 4.952857120908539 0.4259999999999998 Q 5.053357120908539 0.4259999999999998 5.112607120908539 0.46724999999999983 Q 5.171857120908539 0.5084999999999998 5.198107120908539 0.5744999999999998 Q 5.2243571209085395 0.6404999999999998 5.2243571209085395 0.7154999999999998 L 5.2243571209085395 1.1055 Q 5.2243571209085395 1.1219999999999999 5.211607120908539 1.1332499999999999 Q 5.1988571209085395 1.1444999999999999 5.1763571209085395 1.1444999999999999 Q 5.158357120908539 1.1444999999999999 5.144857120908539 1.1332499999999999 Q 5.13135712090854 1.1219999999999999 5.13135712090854 1.1055 L 5.13135712090854 1.0394999999999999 Q 5.092357120908539 1.0829999999999997 5.0368571209085395 1.1189999999999998 Q 4.981357120908539 1.1549999999999998 4.904857120908539 1.1549999999999998 M 4.928857120908539 1.0724999999999998 Q 4.978357120908539 1.0724999999999998 5.023357120908539 1.047 Q 5.068357120908539 1.0214999999999999 5.097607120908539 0.9847499999999998 Q 5.126857120908539 0.9479999999999998 5.126857120908539 0.9149999999999998 L 5.126857120908539 0.8189999999999998 L 5.06385712090854 0.8189999999999998 Q 4.996357120908539 0.8189999999999998 4.935607120908539 0.8272499999999998 Q 4.87485712090854 0.8354999999999999 4.836607120908539 0.8624999999999998 Q 4.798357120908539 0.8894999999999998 4.798357120908539 0.9479999999999998 Q 4.798357120908539 1.0124999999999997 4.836607120908539 1.0424999999999998 Q 4.87485712090854 1.0724999999999998 4.928857120908539 1.0724999999999998 M 5.639839542783539 1.1444999999999999 Q 5.524339542783539 1.1444999999999999 5.46283954278354 1.0919999999999999 Q 5.401339542783539 1.0394999999999999 5.401339542783539 0.9239999999999998 L 5.401339542783539 0.13349999999999973 Q 5.401339542783539 0.11699999999999977 5.417089542783539 0.10724999999999985 Q 5.432839542783539 0.09749999999999992 5.449339542783539 0.09749999999999992 Q 5.468839542783539 0.09749999999999992 5.48383954278354 0.10724999999999985 Q 5.498839542783539 0.11699999999999977 5.498839542783539 0.13349999999999973 L 5.498839542783539 0.43499999999999983 L 5.6938395427835395 0.43499999999999983 Q 5.708839542783539 0.43499999999999983 5.71783954278354 0.44699999999999984 Q 5.726839542783539 0.45899999999999985 5.726839542783539 0.4754999999999998 Q 5.726839542783539 0.4919999999999999 5.71783954278354 0.5039999999999999 Q 5.708839542783539 0.5159999999999998 5.6938395427835395 0.5159999999999998 L 5.498839542783539 0.5159999999999998 L 5.498839542783539 0.9239999999999998 Q 5.498839542783539 0.9974999999999998 5.53033954278354 1.0267499999999998 Q 5.561839542783539 1.0559999999999998 5.639839542783539 1.0559999999999998 L 5.681839542783539 1.0559999999999998 Q 5.702839542783539 1.0559999999999998 5.714089542783539 1.0687499999999999 Q 5.725339542783539 1.0815 5.725339542783539 1.0995 Q 5.725339542783539 1.1175 5.714089542783539 1.1309999999999998 Q 5.702839542783539 1.1444999999999999 5.681839542783539 1.1444999999999999 L 5.639839542783539 1.1444999999999999 M 6.130355656064789 1.1549999999999998 Q 6.035855656064789 1.1549999999999998 5.963105656064789 1.1189999999999998 Q 5.89035565606479 1.0829999999999997 5.849105656064789 1.0192499999999998 Q 5.807855656064789 0.9554999999999998 5.807855656064789 0.8699999999999999 L 5.807855656064789 0.7019999999999998 Q 5.807855656064789 0.6269999999999999 5.846855656064789 0.5639999999999998 Q 5.885855656064789 0.5009999999999999 5.951105656064789 0.4634999999999998 Q 6.016355656064789 0.4259999999999998 6.094355656064789 0.4259999999999998 Q 6.1693556560647895 0.4259999999999998 6.233105656064789 0.4612499999999998 Q 6.296855656064789 0.49649999999999983 6.33585565606479 0.5579999999999998 Q 6.374855656064789 0.6194999999999998 6.374855656064789 0.6989999999999998 Q 6.374855656064789 0.7574999999999998 6.3553556560647895 0.7822499999999999 Q 6.33585565606479 0.8069999999999998 6.306605656064789 0.8129999999999998 Q 6.277355656064789 0.8189999999999998 6.244355656064789 0.8189999999999998 L 5.905355656064789 0.8189999999999998 L 5.905355656064789 0.8744999999999998 Q 5.905355656064789 0.9644999999999999 5.969855656064789 1.017 Q 6.034355656064789 1.0695 6.133355656064789 1.0695 Q 6.1933556560647895 1.0695 6.226355656064789 1.0544999999999998 Q 6.259355656064789 1.0394999999999999 6.278105656064789 1.0244999999999997 Q 6.296855656064789 1.0094999999999998 6.31335565606479 1.0094999999999998 Q 6.325355656064789 1.0094999999999998 6.33510565606479 1.01775 Q 6.344855656064789 1.0259999999999998 6.350105656064789 1.0364999999999998 Q 6.3553556560647895 1.047 6.3553556560647895 1.0559999999999998 Q 6.3553556560647895 1.0724999999999998 6.328355656064789 1.0964999999999998 Q 6.301355656064789 1.1204999999999998 6.250355656064789 1.1377499999999998 Q 6.199355656064789 1.1549999999999998 6.130355656064789 1.1549999999999998 M 5.905355656064789 0.7469999999999999 L 6.205355656064789 0.7469999999999999 Q 6.250355656064789 0.7469999999999999 6.26535565606479 0.7372499999999998 Q 6.280355656064789 0.7274999999999998 6.280355656064789 0.6959999999999998 Q 6.280355656064789 0.6479999999999999 6.257105656064789 0.6044999999999998 Q 6.233855656064789 0.5609999999999998 6.1911056560647895 0.5339999999999998 Q 6.14835565606479 0.5069999999999998 6.092855656064789 0.5069999999999998 Q 6.041855656064789 0.5069999999999998 5.999105656064789 0.5317499999999998 Q 5.9563556560647894 0.5564999999999999 5.930855656064789 0.5977499999999999 Q 5.905355656064789 0.6389999999999998 5.905355656064789 0.6899999999999998 L 5.905355656064789 0.7469999999999999" fill="#3f170e" fill-rule="nonzero"></path></g><g><path d=" M 0.09482758620689655 1.966324137931034 Q 0.08448275862068966 1.966324137931034 0.07758620689655173 1.9594275862068962 Q 0.06551724137931034 1.9490827586206894 0.06551724137931034 1.9378758620689651 L 0.06551724137931034 1.5249448275862065 Q 0.06551724137931034 1.508565517241379 0.08275862068965517 1.4990827586206894 Q 0.08793103448275862 1.4973586206896548 0.09310344827586206 1.4956344827586203 L 0.33879310344827585 1.4956344827586203 Q 0.35172413793103446 1.4956344827586203 0.3577586206896552 1.5033931034482755 Q 0.36379310344827587 1.5111517241379306 0.36379310344827587 1.5202034482758617 Q 0.36379310344827587 1.5292551724137926 0.3568965517241379 1.537013793103448 Q 0.35 1.5447724137931031 0.33879310344827585 1.5447724137931031 L 0.12241379310344827 1.5447724137931031 L 0.12241379310344827 1.7008068965517238 L 0.328448275862069 1.7008068965517238 Q 0.3413793103448276 1.7008068965517238 0.3474137931034483 1.7081344827586205 Q 0.35344827586206895 1.715462068965517 0.35344827586206895 1.7249448275862065 Q 0.35344827586206895 1.7335655172413789 0.346551724137931 1.7404620689655168 Q 0.3396551724137931 1.7473586206896548 0.328448275862069 1.7473586206896548 L 0.12241379310344827 1.7473586206896548 L 0.12241379310344827 1.9180482758620685 L 0.3482758620689655 1.9180482758620685 Q 0.3603448275862069 1.9180482758620685 0.36637931034482757 1.9258068965517237 Q 0.37241379310344824 1.933565517241379 0.37241379310344824 1.9430482758620686 Q 0.37241379310344824 1.9525310344827582 0.36594827586206896 1.9594275862068962 Q 0.3594827586206896 1.966324137931034 0.3482758620689655 1.966324137931034 L 0.09482758620689655 1.966324137931034 M 0.4650960988011853 1.523220689655172 Q 0.4650960988011853 1.5094275862068962 0.47371678845635773 1.5033931034482755 Q 0.48233747811153016 1.4973586206896548 0.48923402983566805 1.4973586206896548 Q 0.496130581559806 1.4973586206896548 0.5004409263873922 1.498220689655172 Q 0.5047512712149784 1.4990827586206894 0.5090616160425646 1.5033931034482755 Q 0.5185443746632543 1.5094275862068962 0.5185443746632543 1.523220689655172 L 0.5185443746632543 1.9404620689655168 Q 0.5185443746632543 1.9533931034482754 0.5099236850080818 1.9598586206896549 Q 0.5013029953529095 1.966324137931034 0.49095816776670254 1.966324137931034 Q 0.4806133401804956 1.966324137931034 0.47285471949084046 1.9598586206896549 Q 0.4650960988011853 1.9533931034482754 0.4650960988011853 1.9404620689655168 L 0.4650960988011853 1.523220689655172 M 0.9129503973599138 1.7930482758620685 Q 0.9129503973599138 1.8111517241379307 0.8922607421875 1.8128758620689651 L 0.6560538456357758 1.8128758620689651 Q 0.6595021214978447 1.9008068965517237 0.7250193628771551 1.926668965517241 Q 0.7431228111530171 1.9327034482758616 0.7663986732219827 1.9327034482758616 Q 0.8146745352909481 1.9327034482758616 0.8646745352909482 1.8973586206896549 Q 0.8801917766702585 1.8887379310344823 0.8905366042564654 1.8990827586206893 Q 0.8957090180495688 1.9042551724137928 0.8939848801185344 1.9094275862068961 Q 0.8939848801185344 1.9214965517241376 0.8879503973599137 1.926668965517241 Q 0.8405366042564655 1.9740827586206893 0.7629503973599137 1.973220689655172 Q 0.6922607421874999 1.973220689655172 0.6491572939116379 1.9275310344827583 Q 0.6008814318426723 1.88011724137931 0.6008814318426723 1.8025310344827583 Q 0.6008814318426723 1.7309793103448272 0.6405366042564654 1.6844275862068963 Q 0.681915914601293 1.6327034482758618 0.7577779835668103 1.6327034482758618 Q 0.8336400525323275 1.6327034482758618 0.8732952249461206 1.6783931034482755 Q 0.9112262594288792 1.7197724137931032 0.9129503973599138 1.7930482758620685 M 0.8620883283943965 1.7775310344827582 Q 0.8595021214978448 1.7309793103448272 0.831915914601293 1.7008068965517238 Q 0.8060538456357758 1.673220689655172 0.7577779835668103 1.673220689655172 Q 0.7163986732219827 1.673220689655172 0.6870883283943965 1.7042551724137929 Q 0.660364190463362 1.7352896551724135 0.6577779835668103 1.7775310344827582 L 0.8620883283943965 1.7775310344827582 M 1.1608179552801725 1.926668965517241 Q 1.152197265625 1.9473586206896547 1.1422834725215516 1.9568413793103445 Q 1.1323696794181035 1.966324137931034 1.1142662311422413 1.966324137931034 Q 1.0961627828663794 1.966324137931034 1.086248989762931 1.957272413793103 Q 1.0763351966594827 1.9482206896551721 1.0694386449353448 1.926668965517241 L 0.9616800242456897 1.673220689655172 Q 0.9539214035560345 1.658565517241379 0.9694386449353448 1.6473586206896549 Q 0.9780593345905172 1.640462068965517 0.9866800242456897 1.6387379310344823 Q 1.0056455414870689 1.6387379310344823 1.0108179552801724 1.6577034482758617 L 1.1142662311422413 1.9059793103448273 L 1.2142662311422414 1.6577034482758617 Q 1.220300713900862 1.640462068965517 1.2366800242456897 1.6387379310344823 Q 1.2539214035560344 1.6387379310344823 1.2625420932112068 1.6533931034482756 Q 1.265990369073276 1.658565517241379 1.2651283001077587 1.6633068965517237 Q 1.2642662311422415 1.6680482758620685 1.2625420932112068 1.673220689655172 L 1.1608179552801725 1.926668965517241 M 1.488817622743804 1.7671862068965514 Q 1.506921071019666 1.7671862068965514 1.525024519295528 1.7680482758620686 L 1.525024519295528 1.7404620689655168 Q 1.525024519295528 1.673220689655172 1.4500245192955281 1.673220689655172 Q 1.4164038296403556 1.673220689655172 1.4008865882610453 1.6792551724137927 Q 1.3733003813644935 1.6895999999999995 1.3612314158472523 1.6969275862068962 Q 1.3491624503300108 1.7042551724137929 1.3422658986058729 1.7042551724137929 Q 1.335369346881735 1.7042551724137929 1.3293348641231142 1.6990827586206894 Q 1.3233003813644937 1.6939103448275858 1.3233003813644937 1.6852896551724135 Q 1.3233003813644937 1.6783931034482755 1.3310590020541488 1.6714965517241376 Q 1.371576243433459 1.6327034482758618 1.4508865882610453 1.6327034482758618 Q 1.5422658986058728 1.6327034482758618 1.5681279675713902 1.6939103448275858 Q 1.5767486572265625 1.715462068965517 1.5767486572265625 1.743910344827586 L 1.5750245192955281 1.9430482758620686 Q 1.5750245192955281 1.9542551724137927 1.567265898605873 1.9602896551724134 Q 1.5595072779162178 1.966324137931034 1.550024519295528 1.966324137931034 Q 1.5405417606748384 1.966324137931034 1.5327831399851832 1.9611517241379306 Q 1.525024519295528 1.9559793103448273 1.525024519295528 1.9439103448275858 L 1.525024519295528 1.9128758620689652 Q 1.5043348641231142 1.9577034482758617 1.4508865882610453 1.9689103448275858 Q 1.4345072779162178 1.973220689655172 1.413817622743804 1.973220689655172 Q 1.3931279675713901 1.973220689655172 1.372869346881735 1.9671862068965513 Q 1.35261072619208 1.9611517241379306 1.3370934848127694 1.9482206896551721 Q 1.3051969330886315 1.9214965517241376 1.3051969330886315 1.8758068965517238 Q 1.3051969330886315 1.7671862068965514 1.488817622743804 1.7671862068965514 M 1.525024519295528 1.8059793103448272 Q 1.5112314158472522 1.8077034482758618 1.4931279675713902 1.8077034482758618 Q 1.475024519295528 1.8077034482758618 1.4560590020541488 1.8081344827586203 Q 1.4370934848127694 1.8085655172413788 1.4198521055024247 1.8124448275862066 Q 1.4026107261920797 1.8163241379310342 1.388817622743804 1.8240827586206894 Q 1.3595072779162178 1.8395999999999997 1.3577831399851832 1.8749448275862066 Q 1.3577831399851832 1.9025310344827582 1.3801969330886315 1.9180482758620685 Q 1.3974383123989764 1.9318413793103444 1.4293348641231143 1.9327034482758616 Q 1.46812796757139 1.9327034482758616 1.496576243433459 1.9077034482758617 Q 1.5224383123989764 1.883565517241379 1.525024519295528 1.8352896551724134 L 1.525024519295528 1.8059793103448272 M 1.8495762265961746 1.9473586206896547 Q 1.8495762265961746 1.973220689655172 1.7883693300444505 1.973220689655172 Q 1.7426796748720368 1.973220689655172 1.7237141576306574 1.9482206896551721 Q 1.7030245024582438 1.9214965517241376 1.7013003645272091 1.8602896551724135 L 1.7013003645272091 1.6792551724137927 L 1.6633693300444505 1.6792551724137927 Q 1.6530245024582437 1.6792551724137927 1.646990019699623 1.6727896551724135 Q 1.6409555369410023 1.666324137931034 1.6409555369410023 1.6594275862068961 Q 1.6409555369410023 1.6525310344827582 1.6461279507341058 1.6456344827586205 Q 1.6513003645272093 1.6387379310344823 1.6633693300444505 1.6387379310344823 L 1.7047486403892782 1.6387379310344823 L 1.708196916251347 1.5456344827586204 Q 1.7099210541823817 1.5352896551724133 1.7176796748720369 1.5296862068965513 Q 1.725438295561692 1.5240827586206893 1.7340589852168644 1.5240827586206893 Q 1.7426796748720368 1.5240827586206893 1.7487141576306575 1.5292551724137926 Q 1.7547486403892782 1.5344275862068961 1.7547486403892782 1.5456344827586204 L 1.7547486403892782 1.6387379310344823 L 1.8142313990099679 1.6387379310344823 Q 1.8245762265961747 1.6387379310344823 1.8301796748720367 1.6456344827586205 Q 1.835783123147899 1.6525310344827582 1.835783123147899 1.6594275862068961 Q 1.835783123147899 1.6680482758620685 1.8301796748720367 1.6736517241379307 Q 1.8245762265961747 1.6792551724137927 1.8142313990099679 1.6792551724137927 L 1.7547486403892782 1.6792551724137927 L 1.7547486403892782 1.8318413793103445 Q 1.7547486403892782 1.8956344827586202 1.7590589852168643 1.9089965517241376 Q 1.7633693300444506 1.9223586206896548 1.7728520886651402 1.9275310344827583 Q 1.7823348472858298 1.9327034482758616 1.7961279507341057 1.9327034482758616 L 1.8297486403892782 1.93011724137931 Q 1.8392313990099678 1.93011724137931 1.8444038128030713 1.9361517241379307 Q 1.8495762265961746 1.9421862068965514 1.8495762265961746 1.9473586206896547 M 1.9715578276535561 1.5249448275862065 Q 1.9715578276535561 1.5387379310344824 1.9620750690328665 1.5473586206896548 Q 1.952592310412177 1.5559793103448272 1.9353509311018322 1.5559793103448272 Q 1.9181095517914872 1.5559793103448272 1.9086267931707976 1.5473586206896548 Q 1.899144034550108 1.5387379310344824 1.899144034550108 1.5249448275862065 Q 1.899144034550108 1.512875862068965 1.9086267931707976 1.5042551724137927 Q 1.9181095517914872 1.4956344827586203 1.9357819655845907 1.4956344827586203 Q 1.9534543793776942 1.4956344827586203 1.9625061035156253 1.5042551724137927 Q 1.9715578276535561 1.512875862068965 1.9715578276535561 1.5249448275862065 M 1.9094888621363149 1.666324137931034 Q 1.9094888621363149 1.6533931034482756 1.9181095517914872 1.646065517241379 Q 1.9267302414466596 1.6387379310344823 1.9336267931707976 1.6387379310344823 Q 1.9405233448949355 1.6387379310344823 1.9448336897225218 1.6408931034482754 Q 1.9491440345501079 1.6430482758620686 1.9534543793776942 1.6473586206896549 Q 1.9629371379983838 1.6533931034482756 1.9629371379983838 1.666324137931034 L 1.9629371379983838 1.9404620689655168 Q 1.9629371379983838 1.9533931034482754 1.9543164483432114 1.9598586206896549 Q 1.945695758688039 1.966324137931034 1.9353509311018322 1.966324137931034 Q 1.9250061035156252 1.966324137931034 1.91724748282597 1.9598586206896549 Q 1.9094888621363149 1.9533931034482754 1.9094888621363149 1.9404620689655168 L 1.9094888621363149 1.666324137931034 M 2.065963850350216 1.6637379310344824 Q 2.065963850350216 1.6525310344827582 2.074584540005388 1.6456344827586205 Q 2.0832052296605608 1.6387379310344823 2.091825919315733 1.6387379310344823 Q 2.109929367591595 1.6387379310344823 2.1151017813846984 1.6525310344827582 Q 2.120274195177802 1.666324137931034 2.1176879882812503 1.6939103448275858 Q 2.1280328158674573 1.6680482758620685 2.162515574488147 1.6490827586206893 Q 2.1926879882812504 1.6327034482758618 2.222429367591595 1.6327034482758618 Q 2.25217074690194 1.6327034482758618 2.272860402074354 1.6400310344827582 Q 2.2935500572467675 1.6473586206896549 2.3107914365571123 1.6628758620689652 Q 2.345274195177802 1.6956344827586203 2.345274195177802 1.7594275862068962 L 2.345274195177802 1.9421862068965514 Q 2.345274195177802 1.9542551724137927 2.336222471039871 1.9602896551724134 Q 2.32717074690194 1.966324137931034 2.3176879882812504 1.966324137931034 Q 2.3073431606950434 1.966324137931034 2.2995845400053883 1.9598586206896549 Q 2.291825919315733 1.9533931034482754 2.291825919315733 1.9421862068965514 L 2.291825919315733 1.7559793103448271 Q 2.291825919315733 1.715462068965517 2.2694121262122846 1.6939103448275858 Q 2.248722471039871 1.673220689655172 2.2176879882812504 1.673220689655172 Q 2.1763086779364227 1.673220689655172 2.1469983331088365 1.6973586206896547 Q 2.1176879882812503 1.723220689655172 2.1176879882812503 1.776668965517241 L 2.1176879882812503 1.9421862068965514 Q 2.1176879882812503 1.9542551724137927 2.1090672986260777 1.9602896551724134 Q 2.1004466089709055 1.966324137931034 2.0901017813846985 1.966324137931034 Q 2.0797569537984915 1.966324137931034 2.0728604020743537 1.9598586206896549 Q 2.065963850350216 1.9533931034482754 2.065963850350216 1.9421862068965514 L 2.065963850350216 1.6637379310344824 M 2.5784641660492995 1.6740827586206892 Q 2.4819124419113687 1.6740827586206892 2.4819124419113687 1.8025310344827583 Q 2.4819124419113687 1.8628758620689652 2.512084855704472 1.8973586206896549 Q 2.5379469246699893 1.9275310344827583 2.579326235014817 1.9283931034482755 Q 2.6215676143251616 1.9283931034482755 2.650877959152748 1.8964965517241374 Q 2.6819124419113685 1.8628758620689652 2.6819124419113685 1.8042551724137927 Q 2.6819124419113685 1.716324137931034 2.6267400281182653 1.6852896551724135 Q 2.6077745108768857 1.6740827586206892 2.5784641660492995 1.6740827586206892 M 2.5646710626010236 1.6327034482758618 Q 2.6491538212217134 1.6327034482758618 2.6836365798424033 1.6973586206896547 L 2.6836365798424033 1.6611517241379308 Q 2.6853607177734378 1.6508068965517237 2.6922572694975755 1.644772413793103 Q 2.6991538212217137 1.6387379310344823 2.7086365798424032 1.6387379310344823 Q 2.718119338463093 1.6387379310344823 2.725877959152748 1.6456344827586205 Q 2.733636579842403 1.6525310344827582 2.733636579842403 1.6637379310344824 L 2.733636579842403 1.973220689655172 Q 2.733636579842403 2.040462068965517 2.690533131566541 2.073220689655172 Q 2.6517400281182653 2.104255172413793 2.5784641660492995 2.104255172413793 Q 2.5129469246699894 2.104255172413793 2.4801883039803343 2.0818413793103443 Q 2.454326235014817 2.062875862068965 2.454326235014817 2.0508068965517237 Q 2.454326235014817 2.0421862068965515 2.459929683290679 2.0365827586206895 Q 2.465533131566541 2.030979310344827 2.472860717773438 2.030979310344827 Q 2.4801883039803343 2.030979310344827 2.487084855704472 2.035720689655172 Q 2.49398140742861 2.040462068965517 2.5034641660492998 2.044772413793103 Q 2.5129469246699894 2.0490827586206892 2.522429683290679 2.052531034482758 Q 2.547429683290679 2.0611517241379307 2.573722786738955 2.0611517241379307 Q 2.6000158901872306 2.0611517241379307 2.6194124419113685 2.0568413793103444 Q 2.6388089936355064 2.052531034482758 2.6526020970837827 2.0421862068965515 Q 2.6819124419113685 2.023220689655172 2.6819124419113685 1.976668965517241 L 2.6819124419113685 1.901668965517241 Q 2.6569124419113685 1.9490827586206894 2.6026020970837824 1.9628758620689652 Q 2.5853607177734377 1.966324137931034 2.56898140742861 1.966324137931034 Q 2.497429683290679 1.966324137931034 2.4594986488079202 1.9171862068965513 Q 2.4241538212217133 1.873220689655172 2.4241538212217133 1.8042551724137927 Q 2.4241538212217133 1.7309793103448272 2.4594986488079202 1.6844275862068963 Q 2.4965676143251616 1.6327034482758618 2.5646710626010236 1.6327034482758618 M 3.09742536873653 1.9637379310344825 L 2.9707012308054956 1.6740827586206892 Q 2.9681150239089438 1.668910344827586 2.9681150239089438 1.6637379310344824 Q 2.9681150239089438 1.658565517241379 2.9707012308054956 1.653824137931034 Q 2.973287437702047 1.6490827586206893 2.9767357135641164 1.6473586206896549 Q 2.987080541150323 1.640462068965517 2.9965632997710125 1.6387379310344823 Q 3.0146667480468747 1.6387379310344823 3.02242536873653 1.6559793103448273 L 3.125011575633082 1.9042551724137928 L 3.2267357135641164 1.6559793103448273 Q 3.2344943342537715 1.6387379310344823 3.2469943342537713 1.6387379310344823 Q 3.2594943342537714 1.6387379310344823 3.2676839894261853 1.646065517241379 Q 3.275873644598599 1.6533931034482756 3.275873644598599 1.6611517241379308 Q 3.275873644598599 1.668910344827586 3.2732874377020473 1.6740827586206892 L 3.107770196322737 2.076668965517241 Q 3.100011575633082 2.0939103448275858 3.083632265288254 2.0939103448275858 Q 3.073287437702047 2.0939103448275858 3.0663908859779094 2.0887379310344825 Q 3.0560460583917024 2.08011724137931 3.0560460583917024 2.0723586206896547 Q 3.0560460583917024 2.0645999999999995 3.0586322652882543 2.0611517241379307 L 3.09742536873653 1.9637379310344825 M 3.3211300553946654 1.8033931034482755 Q 3.3211300553946654 1.7723586206896549 3.3310438484981137 1.741324137931034 Q 3.340957641601562 1.7102896551724134 3.361647296773976 1.6852896551724135 Q 3.404750745049838 1.6327034482758618 3.4840610898774242 1.6327034482758618 Q 3.5633714347050103 1.6327034482758618 3.6064748829808724 1.6852896551724135 Q 3.646992124360183 1.7352896551724135 3.646992124360183 1.8025310344827583 Q 3.646992124360183 1.8706344827586203 3.6064748829808724 1.9197724137931031 Q 3.5633714347050103 1.973220689655172 3.4840610898774242 1.973220689655172 Q 3.404750745049838 1.973220689655172 3.361647296773976 1.9197724137931031 Q 3.3211300553946654 1.8714965517241375 3.3211300553946654 1.8033931034482755 M 3.3771645381532864 1.8033931034482755 Q 3.3771645381532864 1.8240827586206894 3.3827679864291484 1.8473586206896548 Q 3.3883714347050105 1.8706344827586203 3.403026607118804 1.890462068965517 Q 3.4323369519463895 1.9327034482758616 3.4840610898774242 1.9327034482758616 Q 3.5383714347050104 1.9327034482758616 3.5650955726360447 1.890462068965517 Q 3.590095572636045 1.8508068965517237 3.590095572636045 1.8025310344827583 Q 3.590095572636045 1.7525310344827583 3.5650955726360447 1.716324137931034 Q 3.5375093657394934 1.673220689655172 3.4840610898774242 1.673220689655172 Q 3.4323369519463895 1.673220689655172 3.403026607118804 1.716324137931034 Q 3.3771645381532864 1.751668965517241 3.3771645381532864 1.8033931034482755 M 4.006051846208243 1.9421862068965514 Q 4.006051846208243 1.9542551724137927 3.997000122070312 1.9602896551724134 Q 3.987948397932381 1.966324137931034 3.9814828806910016 1.966324137931034 Q 3.975017363449622 1.966324137931034 3.969844949656519 1.9650310344827582 Q 3.9646725358634156 1.9637379310344825 3.9612242600013463 1.9594275862068962 Q 3.952603570346174 1.9533931034482754 3.952603570346174 1.9421862068965514 L 3.952603570346174 1.912013793103448 Q 3.9319139151737605 1.9577034482758617 3.876741501380657 1.9689103448275858 Q 3.8595001220703122 1.973220689655172 3.8396725358634156 1.973220689655172 Q 3.819844949656519 1.973220689655172 3.798293225518588 1.966324137931034 Q 3.776741501380657 1.9594275862068962 3.7612242600013466 1.9439103448275858 Q 3.726741501380657 1.9111517241379308 3.726741501380657 1.8456344827586204 L 3.726741501380657 1.6645999999999996 Q 3.726741501380657 1.6525310344827582 3.7345001220703122 1.6456344827586205 Q 3.7422587427599674 1.6387379310344823 3.752603570346174 1.6387379310344823 Q 3.762948397932381 1.6387379310344823 3.770707018622036 1.6456344827586205 Q 3.7784656393116913 1.6525310344827582 3.7784656393116913 1.6645999999999996 L 3.7784656393116913 1.8499448275862065 Q 3.7784656393116913 1.8964965517241374 3.7974311565530705 1.9145999999999996 Q 3.81639667379445 1.9327034482758616 3.8543277082772085 1.9327034482758616 Q 3.918120811725484 1.9327034482758616 3.942258742759967 1.8809793103448271 Q 3.9517415013806567 1.8628758620689652 3.952603570346174 1.8395999999999997 L 3.952603570346174 1.6645999999999996 Q 3.952603570346174 1.6525310344827582 3.9612242600013463 1.6456344827586205 Q 3.969844949656519 1.6387379310344823 3.980189777242726 1.6387379310344823 Q 3.990534604828933 1.6387379310344823 3.998293225518588 1.6456344827586205 Q 4.006051846208243 1.6525310344827582 4.006051846208243 1.6645999999999996 L 4.006051846208243 1.9421862068965514 M 4.159931472252155 1.6939103448275858 Q 4.180621127424568 1.6327034482758618 4.250448713631465 1.6327034482758618 Q 4.2633797481142235 1.6327034482758618 4.2698452653556025 1.6400310344827582 Q 4.276310782596982 1.6473586206896549 4.276310782596982 1.6555482758620685 Q 4.276310782596982 1.6637379310344824 4.2698452653556025 1.6710655172413789 Q 4.2633797481142235 1.6783931034482755 4.246138368803878 1.6783931034482755 Q 4.228896989493534 1.6783931034482755 4.211655610183189 1.6852896551724135 Q 4.1944142308728445 1.6921862068965514 4.1832073343211205 1.7051172413793099 Q 4.159931472252155 1.7335655172413789 4.159931472252155 1.78011724137931 L 4.159931472252155 1.9421862068965514 Q 4.159931472252155 1.9542551724137927 4.151310782596982 1.9602896551724134 Q 4.14269009294181 1.966324137931034 4.135793541217672 1.966324137931034 Q 4.1288969894935335 1.966324137931034 4.124586644665948 1.9650310344827582 Q 4.120276299838362 1.9637379310344825 4.1159659550107754 1.9594275862068962 Q 4.10820733432112 1.9542551724137927 4.10820733432112 1.9421862068965514 L 4.10820733432112 1.6645999999999996 Q 4.10820733432112 1.6533931034482756 4.1159659550107754 1.646065517241379 Q 4.123724575700431 1.6387379310344823 4.135362506734913 1.6387379310344823 Q 4.147000437769396 1.6387379310344823 4.153465955010775 1.646065517241379 Q 4.159931472252155 1.6533931034482756 4.159931472252155 1.6645999999999996 L 4.159931472252155 1.6939103448275858 M 4.749588538860452 1.6895999999999995 L 4.658209228515625 1.9378758620689651 Q 4.648726469894935 1.966324137931034 4.621571297481142 1.966324137931034 Q 4.594416125067349 1.966324137931034 4.586657504377694 1.9387379310344823 L 4.487519573343211 1.6740827586206892 Q 4.485795435412177 1.668910344827586 4.485795435412177 1.664168965517241 Q 4.485795435412177 1.6594275862068961 4.487519573343211 1.6542551724137926 Q 4.489243711274246 1.6490827586206893 4.493554056101832 1.6473586206896549 Q 4.503036814722521 1.640462068965517 4.50993336644666 1.6387379310344823 Q 4.530623021619073 1.6387379310344823 4.534933366446659 1.6577034482758617 L 4.623726469894935 1.9094275862068961 L 4.715105780239763 1.666324137931034 Q 4.7237264698949355 1.640462068965517 4.751312676791487 1.6387379310344823 Q 4.763381642308729 1.6387379310344823 4.773726469894935 1.644772413793103 Q 4.784071297481142 1.6508068965517237 4.789243711274246 1.666324137931034 L 4.87545060782597 1.9068413793103445 L 4.963381642308728 1.6577034482758617 Q 4.969416125067349 1.6387379310344823 4.985795435412177 1.6387379310344823 Q 4.9961402629983835 1.6387379310344823 5.00346784920528 1.646065517241379 Q 5.010795435412176 1.6533931034482756 5.010795435412176 1.6611517241379308 Q 5.010795435412176 1.668910344827586 5.00993336644666 1.6740827586206892 L 4.908209228515625 1.9387379310344823 Q 4.899588538860453 1.966324137931034 4.87545060782597 1.966324137931034 Q 4.847864400929418 1.966324137931034 4.840105780239763 1.9378758620689651 L 4.749588538860452 1.6895999999999995 M 5.3741538212217135 1.7930482758620685 Q 5.3741538212217135 1.8111517241379307 5.353464166049299 1.8128758620689651 L 5.117257269497576 1.8128758620689651 Q 5.120705545359645 1.9008068965517237 5.186222786738955 1.926668965517241 Q 5.204326235014817 1.9327034482758616 5.227602097083783 1.9327034482758616 Q 5.275877959152748 1.9327034482758616 5.3258779591527485 1.8973586206896549 Q 5.341395200532059 1.8887379310344823 5.351740028118265 1.8990827586206893 Q 5.356912441911369 1.9042551724137928 5.355188303980334 1.9094275862068961 Q 5.355188303980334 1.9214965517241376 5.349153821221714 1.926668965517241 Q 5.301740028118266 1.9740827586206893 5.224153821221714 1.973220689655172 Q 5.1534641660493 1.973220689655172 5.110360717773438 1.9275310344827583 Q 5.062084855704472 1.88011724137931 5.062084855704472 1.8025310344827583 Q 5.062084855704472 1.7309793103448272 5.101740028118265 1.6844275862068963 Q 5.143119338463093 1.6327034482758618 5.21898140742861 1.6327034482758618 Q 5.294843476394127 1.6327034482758618 5.33449864880792 1.6783931034482755 Q 5.3724296832906795 1.7197724137931032 5.3741538212217135 1.7930482758620685 M 5.323291752256196 1.7775310344827582 Q 5.320705545359645 1.7309793103448272 5.293119338463093 1.7008068965517238 Q 5.267257269497576 1.673220689655172 5.21898140742861 1.673220689655172 Q 5.177602097083782 1.673220689655172 5.148291752256196 1.7042551724137929 Q 5.121567614325162 1.7352896551724135 5.11898140742861 1.7775310344827582 L 5.323291752256196 1.7775310344827582 M 5.611676551555766 1.7671862068965514 Q 5.629779999831627 1.7671862068965514 5.64788344810749 1.7680482758620686 L 5.64788344810749 1.7404620689655168 Q 5.64788344810749 1.673220689655172 5.57288344810749 1.673220689655172 Q 5.539262758452318 1.673220689655172 5.523745517073007 1.6792551724137927 Q 5.496159310176456 1.6895999999999995 5.484090344659214 1.6969275862068962 Q 5.472021379141973 1.7042551724137929 5.465124827417835 1.7042551724137929 Q 5.458228275693696 1.7042551724137929 5.452193792935076 1.6990827586206894 Q 5.446159310176455 1.6939103448275858 5.446159310176455 1.6852896551724135 Q 5.446159310176455 1.6783931034482755 5.45391793086611 1.6714965517241376 Q 5.494435172245421 1.6327034482758618 5.573745517073007 1.6327034482758618 Q 5.665124827417834 1.6327034482758618 5.690986896383352 1.6939103448275858 Q 5.699607586038525 1.715462068965517 5.699607586038525 1.743910344827586 L 5.69788344810749 1.9430482758620686 Q 5.69788344810749 1.9542551724137927 5.690124827417835 1.9602896551724134 Q 5.6823662067281795 1.966324137931034 5.6728834481074895 1.966324137931034 Q 5.6634006894868 1.966324137931034 5.655642068797145 1.9611517241379306 Q 5.64788344810749 1.9559793103448273 5.64788344810749 1.9439103448275858 L 5.64788344810749 1.9128758620689652 Q 5.627193792935076 1.9577034482758617 5.573745517073007 1.9689103448275858 Q 5.5573662067281795 1.973220689655172 5.536676551555765 1.973220689655172 Q 5.515986896383352 1.973220689655172 5.495728275693697 1.9671862068965513 Q 5.475469655004042 1.9611517241379306 5.459952413624731 1.9482206896551721 Q 5.428055861900593 1.9214965517241376 5.428055861900593 1.8758068965517238 Q 5.428055861900593 1.7671862068965514 5.611676551555766 1.7671862068965514 M 5.64788344810749 1.8059793103448272 Q 5.634090344659214 1.8077034482758618 5.615986896383352 1.8077034482758618 Q 5.59788344810749 1.8077034482758618 5.57891793086611 1.8081344827586203 Q 5.559952413624731 1.8085655172413788 5.542711034314387 1.8124448275862066 Q 5.525469655004041 1.8163241379310342 5.511676551555766 1.8240827586206894 Q 5.482366206728179 1.8395999999999997 5.480642068797145 1.8749448275862066 Q 5.480642068797145 1.9025310344827582 5.503055861900593 1.9180482758620685 Q 5.520297241210938 1.9318413793103444 5.552193792935076 1.9327034482758616 Q 5.590986896383352 1.9327034482758616 5.619435172245421 1.9077034482758617 Q 5.645297241210938 1.883565517241379 5.64788344810749 1.8352896551724134 L 5.64788344810749 1.8059793103448272 M 5.800021362304689 1.523220689655172 Q 5.800021362304689 1.5094275862068962 5.808642051959861 1.5033931034482755 Q 5.817262741615033 1.4973586206896548 5.8241592933391715 1.4973586206896548 Q 5.831055845063309 1.4973586206896548 5.8353661898908955 1.498220689655172 Q 5.839676534718482 1.4990827586206894 5.843986879546067 1.5033931034482755 Q 5.853469638166757 1.5094275862068962 5.853469638166757 1.523220689655172 L 5.853469638166757 1.9404620689655168 Q 5.853469638166757 1.9533931034482754 5.844848948511585 1.9598586206896549 Q 5.836228258856412 1.966324137931034 5.8258834312702055 1.966324137931034 Q 5.815538603683999 1.966324137931034 5.807779982994344 1.9598586206896549 Q 5.800021362304689 1.9533931034482754 5.800021362304689 1.9404620689655168 L 5.800021362304689 1.523220689655172 M 6.128910143622038 1.9473586206896547 Q 6.128910143622038 1.973220689655172 6.067703247070313 1.973220689655172 Q 6.0220135918979 1.973220689655172 6.003048074656521 1.9482206896551721 Q 5.982358419484107 1.9214965517241376 5.980634281553073 1.8602896551724135 L 5.980634281553073 1.6792551724137927 L 5.942703247070313 1.6792551724137927 Q 5.932358419484107 1.6792551724137927 5.926323936725486 1.6727896551724135 Q 5.920289453966865 1.666324137931034 5.920289453966865 1.6594275862068961 Q 5.920289453966865 1.6525310344827582 5.925461867759969 1.6456344827586205 Q 5.930634281553072 1.6387379310344823 5.942703247070313 1.6387379310344823 L 5.9840825574151415 1.6387379310344823 L 5.98753083327721 1.5456344827586204 Q 5.989254971208244 1.5352896551724133 5.9970135918978995 1.5296862068965513 Q 6.004772212587555 1.5240827586206893 6.013392902242727 1.5240827586206893 Q 6.0220135918979 1.5240827586206893 6.02804807465652 1.5292551724137926 Q 6.034082557415141 1.5344275862068961 6.034082557415141 1.5456344827586204 L 6.034082557415141 1.6387379310344823 L 6.093565316035831 1.6387379310344823 Q 6.103910143622038 1.6387379310344823 6.1095135918979 1.6456344827586205 Q 6.115117040173762 1.6525310344827582 6.115117040173762 1.6594275862068961 Q 6.115117040173762 1.6680482758620685 6.1095135918979 1.6736517241379307 Q 6.103910143622038 1.6792551724137927 6.093565316035831 1.6792551724137927 L 6.034082557415141 1.6792551724137927 L 6.034082557415141 1.8318413793103445 Q 6.034082557415141 1.8956344827586202 6.038392902242728 1.9089965517241376 Q 6.042703247070314 1.9223586206896548 6.052186005691003 1.9275310344827583 Q 6.061668764311693 1.9327034482758616 6.0754618677599685 1.9327034482758616 L 6.1090825574151415 1.93011724137931 Q 6.118565316035831 1.93011724137931 6.123737729828934 1.9361517241379307 Q 6.128910143622038 1.9421862068965514 6.128910143622038 1.9473586206896547 M 6.4146848481276955 1.7542551724137927 Q 6.4146848481276955 1.7145999999999997 6.392271055024247 1.6921862068965514 Q 6.372443468817351 1.673220689655172 6.346150365369074 1.673220689655172 Q 6.319857261920799 1.673220689655172 6.301753813644937 1.6792551724137927 Q 6.283650365369074 1.6852896551724135 6.269857261920799 1.6990827586206894 Q 6.240546917093213 1.726668965517241 6.240546917093213 1.7775310344827582 L 6.240546917093213 1.9421862068965514 Q 6.240546917093213 1.9542551724137927 6.2319262274380405 1.9602896551724134 Q 6.223305537782868 1.966324137931034 6.212960710196661 1.966324137931034 Q 6.202615882610454 1.966324137931034 6.195719330886316 1.9598586206896549 Q 6.188822779162178 1.9533931034482754 6.188822779162178 1.9421862068965514 L 6.188822779162178 1.5214965517241374 Q 6.188822779162178 1.5094275862068962 6.197443468817351 1.5033931034482755 Q 6.206064158472523 1.4973586206896548 6.214684848127695 1.4973586206896548 Q 6.225029675713902 1.4973586206896548 6.232788296403557 1.502962068965517 Q 6.240546917093213 1.508565517241379 6.240546917093213 1.5214965517241374 L 6.240546917093213 1.694772413793103 Q 6.252615882610454 1.6645999999999996 6.285374503300109 1.648220689655172 Q 6.315546917093212 1.6327034482758618 6.345288296403558 1.6327034482758618 Q 6.375029675713902 1.6327034482758618 6.395719330886316 1.6400310344827582 Q 6.41640898605873 1.6473586206896549 6.433650365369075 1.6611517241379308 Q 6.468133123989764 1.6939103448275858 6.468133123989764 1.7577034482758618 L 6.468133123989764 1.9421862068965514 Q 6.468133123989764 1.9542551724137927 6.459081399851834 1.9602896551724134 Q 6.450029675713902 1.966324137931034 6.440546917093212 1.966324137931034 Q 6.430202089507006 1.966324137931034 6.422443468817351 1.9598586206896549 Q 6.4146848481276955 1.9533931034482754 6.4146848481276955 1.9421862068965514 L 6.4146848481276955 1.7542551724137927" fill="#d56a34" fill-rule="nonzero"></path></g></g><defs><clipPath id="SvgjsClipPath1002"><path d=" M 0.5587112057968238 -5.738404281686377 h 5.399848959129681 v 5.488404281686377 h -5.399848959129681 Z"></path></clipPath><clipPath id="SvgjsClipPath1000a5d7b3f5-7f7e-4868-bcd1-e4577b6225ad"><path d=" M 0.5587112057968233 -5.738404281686377 L 5.958560164926505 -5.738404281686377 L 5.958560164926505 -0.25 L 0.5587112057968228 -0.25 Z"></path></clipPath></defs></svg>